# Blender 3.5.1
# www.blender.org
mtllib coin.mtl
o coin
v -104.263565 2.205218 0.202245
v -101.217758 2.205218 0.202245
v -102.740662 4.842954 0.202243
v -102.740662 1.325973 0.202245
v -101.217758 3.963709 0.202244
v -104.263565 3.963709 0.202244
v -102.740662 3.084463 0.202244
v -104.499153 3.084463 0.202244
v -103.619904 1.561558 0.202245
v -102.740662 2.205218 0.202245
v -103.502106 3.524086 0.202244
v -103.502106 2.644841 0.202244
v -101.861420 1.561558 0.202245
v -100.982170 3.084463 0.202244
v -101.979218 3.524086 0.202244
v -101.979218 2.644841 0.202244
v -101.861420 4.607351 0.202243
v -103.619904 4.607351 0.202243
v -102.740662 3.963709 0.202244
v -103.882835 3.743897 0.202244
v -104.439240 3.539596 0.202244
v -104.000641 2.864652 0.202244
v -103.502106 3.084463 0.202244
v -103.941727 3.304275 0.202244
v -104.439240 2.629331 0.202244
v -103.984108 1.841017 0.202245
v -103.561012 2.103208 0.202245
v -103.971184 2.374016 0.202244
v -103.195793 1.385885 0.202245
v -102.740662 1.765596 0.202245
v -103.121391 2.425030 0.202244
v -103.150833 1.934393 0.202245
v -102.740662 2.644841 0.202244
v -103.121391 3.304275 0.202244
v -103.121391 2.864652 0.202244
v -102.285530 1.385885 0.202245
v -101.920311 2.103208 0.202245
v -102.359932 2.425030 0.202244
v -102.330490 1.934393 0.202245
v -101.497215 1.841017 0.202245
v -101.042084 2.629331 0.202244
v -101.480682 2.864652 0.202244
v -101.510139 2.374016 0.202244
v -101.042084 3.539596 0.202244
v -101.598488 3.743897 0.202244
v -101.979218 3.084463 0.202244
v -101.539597 3.304275 0.202244
v -102.359932 3.304275 0.202244
v -102.359932 2.864652 0.202244
v -101.497215 4.327892 0.202244
v -102.301041 4.285530 0.202244
v -102.359932 3.743897 0.202244
v -101.949760 4.014705 0.202244
v -102.285530 4.783024 0.202243
v -103.195793 4.783024 0.202243
v -103.180283 4.285530 0.202244
v -102.740662 4.505341 0.202244
v -103.984108 4.327892 0.202244
v -103.121391 3.743897 0.202244
v -103.531563 4.014705 0.202244
v -102.740662 3.524086 0.202244
v -104.263565 3.963709 -0.199329
v -101.217758 3.963709 -0.199329
v -102.740662 1.325973 -0.199328
v -102.740662 4.842954 -0.199329
v -101.217758 2.205218 -0.199328
v -104.263565 2.205218 -0.199328
v -102.740662 3.084463 -0.199329
v -104.499153 3.084463 -0.199329
v -103.619904 4.607351 -0.199329
v -102.740662 3.963709 -0.199329
v -103.502106 2.644841 -0.199328
v -103.502106 3.524086 -0.199329
v -101.861420 4.607351 -0.199329
v -100.982170 3.084463 -0.199329
v -101.979218 2.644841 -0.199328
v -101.979218 3.524086 -0.199329
v -101.861420 1.561558 -0.199328
v -103.619904 1.561558 -0.199328
v -102.740662 2.205218 -0.199328
v -103.882835 2.425030 -0.199328
v -104.439240 2.629331 -0.199328
v -104.000641 3.304275 -0.199329
v -103.502106 3.084463 -0.199329
v -103.941727 2.864652 -0.199329
v -104.439240 3.539596 -0.199329
v -103.984108 4.327892 -0.199329
v -103.561012 4.065719 -0.199329
v -103.971184 3.794894 -0.199329
v -103.195793 4.783024 -0.199329
v -102.740662 4.403331 -0.199329
v -103.121391 3.743897 -0.199329
v -103.150833 4.234516 -0.199329
v -102.740662 3.524086 -0.199329
v -103.121391 2.864652 -0.199329
v -103.121391 3.304275 -0.199329
v -102.285530 4.783024 -0.199329
v -101.920311 4.065719 -0.199329
v -102.359932 3.743897 -0.199329
v -102.330490 4.234516 -0.199329
v -101.497215 4.327892 -0.199329
v -101.042084 3.539596 -0.199329
v -101.480682 3.304275 -0.199329
v -101.510139 3.794894 -0.199329
v -101.042084 2.629331 -0.199328
v -101.598488 2.425030 -0.199328
v -101.979218 3.084463 -0.199329
v -101.539597 2.864652 -0.199329
v -102.359932 2.864652 -0.199329
v -102.359932 3.304275 -0.199329
v -101.497215 1.841017 -0.199328
v -102.301041 1.883397 -0.199328
v -102.359932 2.425030 -0.199328
v -101.949760 2.154204 -0.199328
v -102.285530 1.385885 -0.199328
v -103.195793 1.385885 -0.199328
v -103.180283 1.883397 -0.199328
v -102.740662 1.663586 -0.199328
v -103.984108 1.841017 -0.199328
v -103.121391 2.425030 -0.199328
v -103.531563 2.154204 -0.199328
v -102.740662 2.644841 -0.199328
v -104.263496 3.963779 -0.199329
v -101.094910 4.029180 0.001457
v -102.735939 4.976623 0.001457
v -104.376968 2.134292 0.001458
v -101.788490 4.722746 0.001457
v -104.566261 3.572170 0.001458
v -101.788490 1.440706 0.001458
v -102.245499 1.251407 0.001459
v -104.075829 4.421610 0.001457
v -101.396042 4.421610 0.001457
v -104.075829 1.741842 0.001458
v -102.245499 4.912045 0.001457
v -100.905609 3.572170 0.001458
v -103.683380 4.722746 0.001457
v -103.683380 1.440706 0.001458
v -104.376968 4.029180 0.001457
v -103.226372 4.912045 0.001457
v -102.735939 1.186848 0.001459
v -101.094910 2.134292 0.001458
v -104.630821 3.081736 0.001458
v -100.841049 3.081736 0.001458
v -100.905609 2.591301 0.001458
v -104.376930 4.029217 0.001457
v -103.226372 1.251407 0.001459
v -104.566261 2.591301 0.001458
v -101.396042 1.741842 0.001458
vn -0.0000 -0.0000 1.0000
vn 0.0791 -0.0297 0.9964
vn 0.1004 0.0062 0.9949
vn 0.0990 0.0617 0.9932
vn 0.0532 0.0839 0.9950
vn -0.1203 -0.0683 0.9904
vn 0.0462 0.0669 0.9967
vn 0.1058 0.0611 0.9925
vn 0.0574 0.0933 0.9940
vn -0.0010 0.1019 0.9948
vn -0.0604 0.0962 0.9935
vn -0.1114 0.0657 0.9916
vn -0.1101 0.0122 0.9938
vn 0.1042 -0.0711 0.9920
vn -0.0656 0.0892 0.9938
vn -0.1126 0.0637 0.9916
vn -0.1135 0.0042 0.9935
vn -0.0887 -0.0501 0.9948
vn -0.0521 -0.0964 0.9940
vn -0.0000 -0.1222 0.9925
vn 0.0442 -0.0912 0.9949
vn 0.0083 0.1385 0.9903
vn -0.0461 -0.0880 0.9950
vn -0.0039 -0.1166 0.9932
vn 0.0449 -0.0901 0.9949
vn -0.0000 -0.0000 -1.0000
vn 0.0879 0.0353 -0.9955
vn 0.1021 -0.0047 -0.9948
vn 0.0990 -0.0606 -0.9932
vn 0.0514 -0.0821 -0.9953
vn -0.0126 0.0009 -0.9999
vn 0.0968 -0.0035 -0.9953
vn 0.1020 -0.0554 -0.9932
vn 0.0552 -0.0860 -0.9948
vn -0.0010 -0.0940 -0.9956
vn -0.0582 -0.0889 -0.9943
vn -0.1077 -0.0601 -0.9924
vn -0.1060 -0.0085 -0.9943
vn 0.1120 0.0658 -0.9915
vn -0.0887 -0.0085 -0.9960
vn -0.1125 -0.0626 -0.9917
vn -0.1152 -0.0028 -0.9933
vn -0.0916 0.0529 -0.9944
vn -0.0552 0.1011 -0.9933
vn -0.0020 0.1288 -0.9917
vn 0.0438 0.0990 -0.9941
vn 0.0086 -0.1300 -0.9915
vn -0.0456 0.0960 -0.9943
vn -0.0018 0.1233 -0.9924
vn 0.0479 0.0949 -0.9943
vn -0.6429 0.6845 -0.3437
vn -0.8893 0.1884 0.4167
vn -0.0353 0.0064 -0.9994
vn -0.5748 0.4876 -0.6572
vn -0.3231 0.8051 -0.4974
vn -0.1102 0.8476 -0.5191
vn 0.1182 0.8568 -0.5019
vn -0.3451 0.8659 -0.3621
vn -0.1372 0.8621 -0.4878
vn 0.0932 0.8564 -0.5077
vn 0.3110 0.8151 -0.4889
vn 0.7433 0.4407 -0.5032
vn 0.8598 -0.1399 0.4910
vn 0.7857 -0.3307 -0.5228
vn 0.6782 -0.5373 -0.5014
vn 0.9180 -0.1369 -0.3723
vn 0.8044 -0.3187 -0.5014
vn 0.6792 -0.5151 -0.5228
vn 0.5319 -0.6799 -0.5049
vn 0.3325 -0.8636 -0.3790
vn -0.5505 -0.6768 -0.4888
vn -0.6951 -0.5090 -0.5077
vn -0.7987 -0.3287 0.5041
vn -0.5834 -0.7192 -0.3774
vn -0.6829 -0.5307 -0.5019
vn -0.7891 -0.3283 -0.5191
vt 0.046716 0.382273
vt 0.254290 0.479650
vt 0.439511 0.382273
vt 0.261377 0.536506
vt 0.245870 0.742978
vt 0.228828 0.519763
vt 0.245870 0.274169
vt 0.272927 0.506321
vt 0.276290 0.508376
vt 0.454124 0.622743
vt 0.242749 0.545904
vt 0.037618 0.622743
vt 0.221438 0.473361
vt 0.245870 0.502508
vt 0.012982 0.502508
vt 0.238825 0.475617
vt 0.125636 0.305628
vt 0.264393 0.488036
vt 0.245870 0.382273
vt 0.141745 0.562626
vt 0.141745 0.442391
vt 0.366105 0.311608
vt 0.267437 0.525567
vt 0.482550 0.502508
vt 0.252357 0.546118
vt 0.349997 0.562626
vt 0.349997 0.442391
vt 0.366105 0.710762
vt 0.234536 0.536416
vt 0.125635 0.710762
vt 0.224798 0.497945
vt 0.245870 0.622743
vt 0.089681 0.592684
vt 0.018144 0.564746
vt 0.230279 0.474452
vt 0.073573 0.472449
vt 0.141745 0.502508
vt 0.081627 0.532567
vt 0.018902 0.440271
vt 0.246736 0.476573
vt 0.075833 0.344601
vt 0.258485 0.482412
vt 0.133690 0.368324
vt 0.077600 0.405358
vt 0.183633 0.280846
vt 0.269309 0.495815
vt 0.245870 0.322156
vt 0.193808 0.412332
vt 0.189780 0.345240
vt 0.245870 0.442391
vt 0.193808 0.532567
vt 0.193808 0.472449
vt 0.308109 0.285758
vt 0.271750 0.517137
vt 0.358051 0.368324
vt 0.297934 0.412332
vt 0.301961 0.345240
vt 0.415909 0.349823
vt 0.263275 0.533231
vt 0.470841 0.440271
vt 0.257046 0.542633
vt 0.418169 0.472449
vt 0.414142 0.405358
vt 0.473598 0.564747
vt 0.247347 0.546677
vt 0.402061 0.592684
vt 0.349997 0.502508
vt 0.410115 0.532567
vt 0.297934 0.532567
vt 0.297934 0.472449
vt 0.415909 0.664207
vt 0.239753 0.541838
vt 0.305988 0.666752
vt 0.297934 0.592684
vt 0.354024 0.629718
vt 0.308109 0.734784
vt 0.231358 0.528867
vt 0.183633 0.734784
vt 0.226671 0.509362
vt 0.185753 0.666752
vt 0.245870 0.696811
vt 0.075833 0.672547
vt 0.223032 0.485830
vt 0.193808 0.592684
vt 0.137718 0.629718
vt 0.245870 0.562626
vt 0.444736 0.634186
vt 0.212520 0.472109
vt 0.241696 0.543669
vt 0.053812 0.634186
vt 0.279633 0.508467
vt 0.276539 0.505255
vt 0.245183 0.273481
vt 0.245183 0.744647
vt 0.225726 0.520500
vt 0.036930 0.412375
vt 0.266005 0.538958
vt 0.450857 0.393716
vt 0.246030 0.476124
vt 0.245183 0.513951
vt 0.485653 0.513951
vt 0.238673 0.473114
vt 0.365418 0.712430
vt 0.221409 0.498601
vt 0.245183 0.634186
vt 0.349310 0.453834
vt 0.349310 0.574068
vt 0.124948 0.713632
vt 0.230034 0.549968
vt 0.018041 0.513951
vt 0.252238 0.545197
vt 0.141056 0.453834
vt 0.141056 0.574068
vt 0.124948 0.310140
vt 0.272365 0.525299
vt 0.362927 0.305697
vt 0.250516 0.484495
vt 0.245183 0.393716
vt 0.401372 0.423775
vt 0.476299 0.453094
vt 0.242858 0.473994
vt 0.417481 0.544010
vt 0.349310 0.513951
vt 0.409427 0.483892
vt 0.230170 0.472430
vt 0.477459 0.576188
vt 0.415220 0.670943
vt 0.220644 0.476438
vt 0.357364 0.648135
vt 0.413454 0.611102
vt 0.307421 0.738728
vt 0.223250 0.513344
vt 0.245183 0.694303
vt 0.297246 0.604127
vt 0.301273 0.671219
vt 0.245183 0.574068
vt 0.297246 0.483892
vt 0.297246 0.544010
vt 0.182945 0.736268
vt 0.226923 0.538997
vt 0.133002 0.648135
vt 0.193120 0.604127
vt 0.189092 0.671219
vt 0.075145 0.670085
vt 0.233161 0.556023
vt 0.246935 0.545883
vt 0.026235 0.576188
vt 0.072885 0.544010
vt 0.076912 0.611102
vt 0.024458 0.451713
vt 0.257437 0.542599
vt 0.088993 0.423775
vt 0.141056 0.513951
vt 0.080939 0.483892
vt 0.193120 0.483892
vt 0.193120 0.544010
vt 0.075145 0.358129
vt 0.269760 0.532606
vt 0.185066 0.349707
vt 0.193120 0.423775
vt 0.137029 0.386741
vt 0.275662 0.518730
vt 0.182945 0.283257
vt 0.318084 0.284839
vt 0.272043 0.496172
vt 0.305300 0.349707
vt 0.245183 0.319648
vt 0.410757 0.343913
vt 0.246224 0.479326
vt 0.297246 0.423775
vt 0.353337 0.386741
vt 0.245183 0.453834
vt 0.445519 0.634195
vt 0.211491 0.473597
vt 0.242222 0.544786
vt 0.227277 0.520132
vt 0.250160 0.477887
vt 0.232285 0.543192
vt 0.230224 0.473441
vt 0.269901 0.525433
vt 0.273706 0.517934
vt 0.221838 0.481134
vt 0.236457 0.548930
vt 0.252354 0.480869
vt 0.229140 0.533932
vt 0.247141 0.546280
vt 0.223103 0.498273
vt 0.257454 0.486265
vt 0.216979 0.472735
vt 0.224960 0.511353
vt 0.274733 0.505788
vt 0.277961 0.508422
vt 0.263691 0.537732
vt 0.238749 0.474366
vt 0.252297 0.545658
vt 0.257241 0.542616
vt 0.216464 0.473479
vt 0.270676 0.495993
vt 0.244797 0.475284
vt 0.266517 0.532919
s 1
usemtl Material.005
f 23/37/1 11/20/1 20/33/1 24/38/1
f 20/33/1 6/12/2 21/34/3 24/38/1
f 21/34/3 8/15/4 22/36/1 24/38/1
f 22/36/1 12/21/1 23/37/1 24/38/1
f 22/36/1 8/15/4 25/39/5 28/44/1
f 25/39/5 1/1/6 28/44/1
f 26/41/7 9/17/8 27/43/1 28/44/1
f 27/43/1 12/21/1 22/36/1 28/44/1
f 27/43/1 9/17/8 29/45/9 32/49/1
f 29/45/9 4/7/10 30/47/1 32/49/1
f 30/47/1 10/19/1 31/48/1 32/49/1
f 31/48/1 12/21/1 27/43/1 32/49/1
f 31/48/1 10/19/1 33/50/1 35/52/1
f 33/50/1 7/14/1 34/51/1 35/52/1
f 34/51/1 11/20/1 23/37/1 35/52/1
f 23/37/1 12/21/1 31/48/1 35/52/1
f 38/56/1 10/19/1 30/47/1 39/57/1
f 30/47/1 4/7/10 36/53/11 39/57/1
f 36/53/11 13/22/12 37/55/1 39/57/1
f 37/55/1 16/27/1 38/56/1 39/57/1
f 37/55/1 13/22/12 40/58/13 43/63/1
f 43/63/1 2/3/14 41/60/15
f 41/60/15 14/24/16 42/62/1 43/63/1
f 42/62/1 16/27/1 37/55/1 43/63/1
f 42/62/1 14/24/16 44/64/17 47/68/1
f 44/64/17 5/10/18 45/66/1 47/68/1
f 45/66/1 15/26/1 46/67/1 47/68/1
f 46/67/1 16/27/1 42/62/1 47/68/1
f 46/67/1 15/26/1 48/69/1 49/70/1
f 48/69/1 7/14/1 33/50/1 49/70/1
f 33/50/1 10/19/1 38/56/1 49/70/1
f 38/56/1 16/27/1 46/67/1 49/70/1
f 52/74/1 15/26/1 45/66/1 53/75/1
f 45/66/1 5/10/18 50/71/19 53/75/1
f 50/71/19 17/28/20 51/73/1 53/75/1
f 51/73/1 19/32/1 52/74/1 53/75/1
f 51/73/1 17/28/20 54/76/21 57/81/1
f 57/81/1 3/5/22 55/78/23
f 55/78/23 18/30/24 56/80/1 57/81/1
f 56/80/1 19/32/1 51/73/1 57/81/1
f 56/80/1 18/30/24 58/82/25 60/85/1
f 58/82/25 6/12/2 20/33/1 60/85/1
f 20/33/1 11/20/1 59/84/1 60/85/1
f 59/84/1 19/32/1 56/80/1 60/85/1
f 59/84/1 11/20/1 34/51/1 61/86/1
f 34/51/1 7/14/1 48/69/1 61/86/1
f 48/69/1 15/26/1 52/74/1 61/86/1
f 52/74/1 19/32/1 59/84/1 61/86/1
f 84/123/26 72/106/26 81/119/26 85/124/26
f 81/119/26 67/98/27 82/120/28 85/124/26
f 82/120/28 69/101/29 83/122/26 85/124/26
f 83/122/26 73/107/26 84/123/26 85/124/26
f 83/122/26 69/101/29 86/126/30 89/130/26
f 89/130/26 123/173/31 87/127/32
f 87/127/32 70/103/33 88/129/26 89/130/26
f 88/129/26 73/107/26 83/122/26 89/130/26
f 88/129/26 70/103/33 90/131/34 93/135/26
f 90/131/34 65/94/35 91/133/26 93/135/26
f 91/133/26 71/105/26 92/134/26 93/135/26
f 92/134/26 73/107/26 88/129/26 93/135/26
f 92/134/26 71/105/26 94/136/26 96/138/26
f 94/136/26 68/100/26 95/137/26 96/138/26
f 95/137/26 72/106/26 84/123/26 96/138/26
f 84/123/26 73/107/26 92/134/26 96/138/26
f 99/142/26 71/105/26 91/133/26 100/143/26
f 91/133/26 65/94/35 97/139/36 100/143/26
f 97/139/36 74/108/37 98/141/26 100/143/26
f 98/141/26 77/113/26 99/142/26 100/143/26
f 98/141/26 74/108/37 101/144/38 104/149/26
f 101/144/38 63/90/39 104/149/26
f 102/147/40 75/110/41 103/148/26 104/149/26
f 103/148/26 77/113/26 98/141/26 104/149/26
f 103/148/26 75/110/41 105/150/42 108/154/26
f 105/150/42 66/96/43 106/152/26 108/154/26
f 106/152/26 76/112/26 107/153/26 108/154/26
f 107/153/26 77/113/26 103/148/26 108/154/26
f 107/153/26 76/112/26 109/155/26 110/156/26
f 109/155/26 68/100/26 94/136/26 110/156/26
f 94/136/26 71/105/26 99/142/26 110/156/26
f 99/142/26 77/113/26 107/153/26 110/156/26
f 113/160/26 76/112/26 106/152/26 114/161/26
f 106/152/26 66/96/43 111/157/44 114/161/26
f 111/157/44 78/114/45 112/159/26 114/161/26
f 112/159/26 80/118/26 113/160/26 114/161/26
f 112/159/26 78/114/45 115/163/46 118/167/26
f 118/167/26 64/93/47 116/164/48
f 116/164/48 79/116/49 117/166/26 118/167/26
f 117/166/26 80/118/26 112/159/26 118/167/26
f 117/166/26 79/116/49 119/168/50 121/171/26
f 119/168/50 67/98/27 81/119/26 121/171/26
f 81/119/26 72/106/26 120/170/26 121/171/26
f 120/170/26 80/118/26 117/166/26 121/171/26
f 120/170/26 72/106/26 95/137/26 122/172/26
f 95/137/26 68/100/26 109/155/26 122/172/26
f 109/155/26 76/112/26 113/160/26 122/172/26
f 113/160/26 80/118/26 120/170/26 122/172/26
f 128/179/51 138/189/52 62/88/53 86/125/30
f 145/197/54 131/182/55 87/128/32 123/174/31
f 131/182/55 136/187/56 70/104/33 87/128/32
f 136/187/56 139/190/57 90/132/34 70/104/33
f 139/190/57 125/176/58 65/95/35 90/132/34
f 125/176/58 134/185/59 97/140/36 65/95/35
f 134/185/59 127/178/60 74/109/37 97/140/36
f 127/178/60 132/183/61 101/145/38 74/109/37
f 132/183/61 124/175/62 63/89/39 101/145/38
f 124/175/62 135/186/63 102/146/40 63/89/39
f 135/186/63 143/195/64 75/111/41 102/146/40
f 143/195/64 144/196/65 105/151/42 75/111/41
f 144/196/65 141/193/66 66/97/43 105/151/42
f 141/193/66 148/200/67 111/158/44 66/97/43
f 148/200/67 129/180/68 78/115/45 111/158/44
f 129/180/68 130/181/69 115/162/46 78/115/45
f 130/181/69 140/192/70 64/91/47 115/162/46
f 140/191/70 146/198/71 116/165/48 64/92/47
f 146/198/71 137/188/72 79/117/49 116/165/48
f 137/188/72 133/184/73 119/169/50 79/117/49
f 133/184/73 126/177/74 67/99/27 119/169/50
f 126/177/74 147/199/75 82/121/28 67/99/27
f 147/199/75 142/194/76 69/102/29 82/121/28
f 142/194/76 128/179/51 86/125/30 69/102/29
f 54/76/21 3/5/22 57/81/1
f 115/163/46 64/93/47 118/167/26
f 86/126/30 62/87/53 123/173/31 89/130/26
f 6/13/2 145/197/54 123/174/31 62/88/53 138/189/52
f 104/149/26 63/90/39 102/147/40
f 28/44/1 1/1/6 26/41/7
f 40/58/13 2/3/14 43/63/1
f 8/16/4 21/35/3 128/179/51 142/194/76
f 25/40/5 8/16/4 142/194/76 147/199/75
f 1/2/6 25/40/5 147/199/75 126/177/74
f 26/42/7 1/2/6 126/177/74 133/184/73
f 9/18/8 26/42/7 133/184/73 137/188/72
f 29/46/9 9/18/8 137/188/72 146/198/71
f 4/8/10 29/46/9 146/198/71 140/191/70
f 36/54/11 4/9/10 140/192/70 130/181/69
f 13/23/12 36/54/11 130/181/69 129/180/68
f 40/59/13 13/23/12 129/180/68 148/200/67
f 2/4/14 40/59/13 148/200/67 141/193/66
f 41/61/15 2/4/14 141/193/66 144/196/65
f 14/25/16 41/61/15 144/196/65 143/195/64
f 44/65/17 14/25/16 143/195/64 135/186/63
f 5/11/18 44/65/17 135/186/63 124/175/62
f 50/72/19 5/11/18 124/175/62 132/183/61
f 17/29/20 50/72/19 132/183/61 127/178/60
f 54/77/21 17/29/20 127/178/60 134/185/59
f 3/6/22 54/77/21 134/185/59 125/176/58
f 55/79/23 3/6/22 125/176/58 139/190/57
f 18/31/24 55/79/23 139/190/57 136/187/56
f 58/83/25 18/31/24 136/187/56 131/182/55
f 6/13/2 58/83/25 131/182/55 145/197/54
f 21/35/3 6/13/2 138/189/52 128/179/51
